<svg width="44" height="62" viewBox="0 0 44 62" fill="none" xmlns="http://www.w3.org/2000/svg">
<g filter="url(#filter0_d_31_5027)">
<path d="M23.5793 52.82L39.5878 43.5167L39.584 44.6053L23.5793 53.9047V52.82Z" fill="#A7B1BA"/>
<path d="M4 41.5171L20.0085 32.2139L39.5878 43.5167L23.5793 52.82L4 41.5171Z" fill="#E4ECF5"/>
<path d="M23.5793 52.82V53.9048L4 42.6019V41.5172L23.5793 52.82Z" fill="#BFC9D3"/>
<path d="M24.8956 44.725L24.1699 49.1141L8.93342 40.3204L8.945 35.5182L24.8956 44.725Z" fill="#234E5D"/>
<path d="M23.1161 44.8794L24.1236 44.2926L24.7489 44.6555L23.7376 45.2422L23.1161 44.8794Z" fill="#9EA4A9"/>
<path d="M23.7376 45.2422L24.7489 44.6555L24.7335 49.4576L23.726 50.0444L23.7376 45.2422Z" fill="#A7B1BA"/>
<path d="M23.1161 44.8793L23.7376 45.2422L23.726 50.0444L23.1006 49.6815L23.1161 44.8793Z" fill="#BFC9D3"/>
<path d="M20.5799 43.4164L21.5874 42.8296L22.178 43.1693L21.1666 43.7561L20.5799 43.4164Z" fill="#9EA4A9"/>
<path d="M21.1666 43.7561L22.178 43.1693L22.1626 47.9715L21.155 48.5582L21.1666 43.7561Z" fill="#A7B1BA"/>
<path d="M20.5644 48.2186L20.5799 43.4164L21.1666 43.7561L21.155 48.5583L20.5644 48.2186Z" fill="#BFC9D3"/>
<path d="M17.9626 41.9069L18.974 41.3202L19.5646 41.6638L18.5532 42.2505L17.9626 41.9069Z" fill="#9EA4A9"/>
<path d="M18.5532 42.2505L19.5646 41.6637L19.553 46.462L18.5416 47.0488L18.5532 42.2505Z" fill="#A7B1BA"/>
<path d="M17.951 46.7092L17.9626 41.907L18.5532 42.2505L18.5416 47.0489L17.951 46.7092Z" fill="#BFC9D3"/>
<path d="M15.3492 40.3977L16.3606 39.8109L16.9512 40.1506L15.9398 40.7412L15.3492 40.3977Z" fill="#9EA4A9"/>
<path d="M15.9398 40.7412L16.9512 40.1506L16.9358 44.9527L15.9282 45.5395L15.9398 40.7412Z" fill="#A7B1BA"/>
<path d="M15.3376 45.1998L15.3492 40.3976L15.9398 40.7412L15.9282 45.5395L15.3376 45.1998Z" fill="#BFC9D3"/>
<path d="M12.7358 38.8883L13.7472 38.3015L14.3339 38.6412L13.3264 39.228L12.7358 38.8883Z" fill="#9EA4A9"/>
<path d="M13.3264 39.2279L14.3339 38.6412L14.3224 43.4433L13.311 44.0301L13.3264 39.2279Z" fill="#A7B1BA"/>
<path d="M12.7242 43.6904L12.7358 38.8882L13.3264 39.2279L13.311 44.0301L12.7242 43.6904Z" fill="#BFC9D3"/>
<path d="M10.1224 37.3789L11.1299 36.7921L11.7205 37.1318L10.7092 37.7186L10.1224 37.3789Z" fill="#9EA4A9"/>
<path d="M10.7092 37.7185L11.7205 37.1318L11.709 41.9339L10.6976 42.5207L10.7092 37.7185Z" fill="#A7B1BA"/>
<path d="M10.107 42.1811L10.1224 37.3789L10.7092 37.7186L10.6976 42.5208L10.107 42.1811Z" fill="#BFC9D3"/>
<path d="M7.55145 35.8966L8.56284 35.3098L9.18434 35.6688L8.17681 36.2556L7.55145 35.8966Z" fill="#9EA4A9"/>
<path d="M8.17681 36.2555L9.18434 35.6688L9.17276 40.4709L8.16137 41.0577L8.17681 36.2555Z" fill="#A7B1BA"/>
<path d="M7.53601 40.6987L7.55145 35.8965L8.17681 36.2556L8.16137 41.0577L7.53601 40.6987Z" fill="#BFC9D3"/>
<path d="M23.9537 19.3746L36.0711 12.3296L36.0016 43.2002L23.8804 49.9556L23.9537 19.3746Z" fill="#A7B1BA"/>
<path d="M7.76762 10.025L19.885 2.98389L36.0711 12.3296L23.9537 19.3746L7.76762 10.025Z" fill="#E4ECF5"/>
<path d="M23.9537 19.3746L23.8804 45.1535L7.69428 35.8078L7.76762 10.025L23.9537 19.3746Z" fill="#666C71"/>
<path d="M23.3515 19.8031L23.2898 42.2737L23.2859 42.8026V43.702L8.29648 35.0511V34.1478L8.30034 33.6228L8.3621 11.1522L23.3515 19.8031Z" fill="#2E687C"/>
<path d="M8.15365 33.6652L8.29648 33.5803L8.29262 35.0086L8.14979 35.0896L8.15365 33.6652Z" fill="#A7B1BA"/>
<path d="M8.14979 35.0896L8.29262 35.0085L10.4312 36.2438L10.2884 36.3249L8.14979 35.0896Z" fill="#E4ECF5"/>
<path d="M8.16137 31.9358L8.30034 31.8547L8.29648 33.2792L8.15365 33.3641L8.16137 31.9358Z" fill="#A7B1BA"/>
<path d="M8.15365 33.3641L8.29648 33.2792L10.4351 34.5145L10.2961 34.5994L8.15365 33.3641Z" fill="#E4ECF5"/>
<path d="M10.8829 35.2402L11.0257 35.1592L11.0218 36.5836L10.879 36.6685L10.8829 35.2402Z" fill="#A7B1BA"/>
<path d="M8.16523 30.2064L8.3042 30.1254L8.30034 31.5498L8.16137 31.6309L8.16523 30.2064Z" fill="#A7B1BA"/>
<path d="M8.16137 31.6309L8.30034 31.5498L10.4389 32.7851L10.3 32.8662L8.16137 31.6309Z" fill="#E4ECF5"/>
<path d="M10.8906 33.5108L11.0296 33.4297L11.0257 34.858L10.8867 34.9391L10.8906 33.5108Z" fill="#A7B1BA"/>
<path d="M8.16909 28.4771L8.31192 28.396L8.30806 29.8204L8.16523 29.9054L8.16909 28.4771Z" fill="#A7B1BA"/>
<path d="M8.16523 29.9053L8.30806 29.8204L10.4467 31.0557L10.3038 31.1406L8.16523 29.9053Z" fill="#E4ECF5"/>
<path d="M10.8944 31.7813L11.0373 31.7003L11.0334 33.1247L10.8906 33.2096L10.8944 31.7813Z" fill="#A7B1BA"/>
<path d="M8.17295 26.7515L8.31578 26.6704L8.31192 28.0949L8.16909 28.1759L8.17295 26.7515Z" fill="#A7B1BA"/>
<path d="M8.16909 28.1759L8.31192 28.0948L10.4505 29.3301L10.3077 29.4112L8.16909 28.1759Z" fill="#E4ECF5"/>
<path d="M10.8983 30.0558L11.0411 29.9709L11.0373 31.3992L10.8944 31.4802L10.8983 30.0558Z" fill="#A7B1BA"/>
<path d="M8.18067 25.022L8.31964 24.941L8.31578 26.3654L8.17681 26.4465L8.18067 25.022Z" fill="#A7B1BA"/>
<path d="M8.17681 26.4465L8.31578 26.3655L10.4544 27.6008L10.3154 27.6818L8.17681 26.4465Z" fill="#E4ECF5"/>
<path d="M10.9022 28.3264L11.045 28.2454L11.0411 29.6698L10.8983 29.7509L10.9022 28.3264Z" fill="#A7B1BA"/>
<path d="M8.18453 23.2926L8.32736 23.2115L8.31964 24.636L8.18067 24.7209L8.18453 23.2926Z" fill="#A7B1BA"/>
<path d="M8.18067 24.721L8.31964 24.636L10.4621 25.8713L10.3193 25.9563L8.18067 24.721Z" fill="#E4ECF5"/>
<path d="M10.9099 26.5971L11.0489 26.516L11.045 27.9404L10.906 28.0254L10.9099 26.5971Z" fill="#A7B1BA"/>
<path d="M8.18839 21.5632L8.33122 21.4822L8.32736 22.9105L8.18453 22.9915L8.18839 21.5632Z" fill="#A7B1BA"/>
<path d="M10.879 36.6685L11.0218 36.5836L20.3637 41.9764L20.2208 42.0613L10.879 36.6685Z" fill="#E4ECF5"/>
<path d="M8.18453 22.9915L8.32736 22.9105L10.466 24.1457L10.3231 24.2268L8.18453 22.9915Z" fill="#E4ECF5"/>
<path d="M10.9137 24.8676L11.0566 24.7866L11.0527 26.2149L10.9099 26.2959L10.9137 24.8676Z" fill="#A7B1BA"/>
<path d="M8.19225 19.8377L8.33508 19.7527L8.33122 21.181L8.18839 21.2621L8.19225 19.8377Z" fill="#A7B1BA"/>
<path d="M10.8867 34.9391L11.0257 34.858L20.3675 40.2508L20.2247 40.3319L10.8867 34.9391Z" fill="#E4ECF5"/>
<path d="M20.8153 40.9727L20.9582 40.8916L20.9543 42.3199L20.8115 42.401L20.8153 40.9727Z" fill="#A7B1BA"/>
<path d="M8.18839 21.2621L8.33122 21.181L10.4698 22.4163L10.327 22.4974L8.18839 21.2621Z" fill="#E4ECF5"/>
<path d="M10.9176 23.1383L11.0604 23.0572L11.0566 24.4855L10.9137 24.5666L10.9176 23.1383Z" fill="#A7B1BA"/>
<path d="M8.19997 18.1083L8.33894 18.0272L8.33508 19.4517L8.19611 19.5327L8.19997 18.1083Z" fill="#A7B1BA"/>
<path d="M20.8115 42.401L20.9543 42.3199L23.282 43.6633L23.1392 43.7443L20.8115 42.401Z" fill="#E4ECF5"/>
<path d="M10.8906 33.2097L11.0334 33.1248L20.3714 38.5176L20.2324 38.6025L10.8906 33.2097Z" fill="#E4ECF5"/>
<path d="M20.8192 39.2433L20.962 39.1622L20.9582 40.5905L20.8153 40.6716L20.8192 39.2433Z" fill="#A7B1BA"/>
<path d="M8.19611 19.5327L8.33508 19.4517L10.4737 20.6869L10.3347 20.768L8.19611 19.5327Z" fill="#E4ECF5"/>
<path d="M10.9253 21.4127L11.0643 21.3317L11.0604 22.7561L10.9215 22.841L10.9253 21.4127Z" fill="#A7B1BA"/>
<path d="M8.20383 16.3789L8.34666 16.2979L8.3428 17.7223L8.19997 17.8034L8.20383 16.3789Z" fill="#A7B1BA"/>
<path d="M20.8153 40.6716L20.9582 40.5905L23.2859 41.9339L23.1431 42.015L20.8153 40.6716Z" fill="#E4ECF5"/>
<path d="M10.8944 31.4804L11.0373 31.3993L20.3753 36.7921L20.2363 36.8732L10.8944 31.4804Z" fill="#E4ECF5"/>
<path d="M20.8269 37.5178L20.9659 37.4367L20.962 38.8611L20.8231 38.9422L20.8269 37.5178Z" fill="#A7B1BA"/>
<path d="M8.19997 17.8034L8.3428 17.7223L10.4814 18.9576L10.3386 19.0386L8.19997 17.8034Z" fill="#E4ECF5"/>
<path d="M10.9292 19.6833L11.0682 19.6022L11.0643 21.0267L10.9253 21.1077L10.9292 19.6833Z" fill="#A7B1BA"/>
<path d="M8.20769 14.6495L8.35052 14.5685L8.34666 15.9929L8.20383 16.0778L8.20769 14.6495Z" fill="#A7B1BA"/>
<path d="M20.8231 38.9421L20.962 38.8611L23.2898 40.2045L23.1508 40.2855L20.8231 38.9421Z" fill="#E4ECF5"/>
<path d="M10.8983 29.7509L11.0411 29.6698L20.383 35.0626L20.2401 35.1437L10.8983 29.7509Z" fill="#E4ECF5"/>
<path d="M20.8308 35.7883L20.9736 35.7073L20.9697 37.1317L20.8269 37.2128L20.8308 35.7883Z" fill="#A7B1BA"/>
<path d="M8.20383 16.0778L8.34666 15.9929L10.4853 17.2281L10.3424 17.3131L8.20383 16.0778Z" fill="#E4ECF5"/>
<path d="M10.933 17.9539L11.0759 17.8729L11.072 19.2973L10.9292 19.3822L10.933 17.9539Z" fill="#A7B1BA"/>
<path d="M8.21155 12.924L8.35438 12.843L8.35052 14.2674L8.20769 14.3485L8.21155 12.924Z" fill="#A7B1BA"/>
<path d="M20.8269 37.2128L20.9697 37.1317L23.2936 38.4751L23.1547 38.5562L20.8269 37.2128Z" fill="#E4ECF5"/>
<path d="M10.906 28.0253L11.045 27.9404L20.3868 33.3332L20.244 33.4181L10.906 28.0253Z" fill="#E4ECF5"/>
<path d="M20.8346 34.059L20.9775 33.9779L20.9736 35.4023L20.8308 35.4873L20.8346 34.059Z" fill="#A7B1BA"/>
<path d="M8.20769 14.3484L8.35052 14.2673L10.4891 15.5026L10.3501 15.5837L8.20769 14.3484Z" fill="#E4ECF5"/>
<path d="M10.9369 16.2284L11.0797 16.1435L11.0759 17.5718L10.933 17.6529L10.9369 16.2284Z" fill="#A7B1BA"/>
<path d="M8.21927 11.1946L8.35824 11.1097L8.35438 12.538L8.21541 12.619L8.21927 11.1946Z" fill="#A7B1BA"/>
<path d="M20.8308 35.4873L20.9736 35.4023L23.3013 36.7496L23.1585 36.8306L20.8308 35.4873Z" fill="#E4ECF5"/>
<path d="M10.9099 26.2959L11.0527 26.2148L20.3907 31.6076L20.2517 31.6887L10.9099 26.2959Z" fill="#E4ECF5"/>
<path d="M20.8385 32.3335L20.9813 32.2485L20.9775 33.6768L20.8346 33.7579L20.8385 32.3335Z" fill="#A7B1BA"/>
<path d="M8.21541 12.619L8.35438 12.538L10.493 13.7732L10.354 13.8543L8.21541 12.619Z" fill="#E4ECF5"/>
<path d="M10.9446 14.4989L11.0836 14.4178L11.0797 15.8423L10.9408 15.9234L10.9446 14.4989Z" fill="#A7B1BA"/>
<path d="M20.8346 33.7578L20.9775 33.6768L23.3052 35.0201L23.1624 35.1012L20.8346 33.7578Z" fill="#E4ECF5"/>
<path d="M10.9137 24.5665L11.0566 24.4855L20.3984 29.8783L20.2556 29.9593L10.9137 24.5665Z" fill="#E4ECF5"/>
<path d="M20.8462 30.604L20.9852 30.5191L20.9813 31.9474L20.8424 32.0285L20.8462 30.604Z" fill="#A7B1BA"/>
<path d="M10.9485 12.7695L11.0913 12.6885L11.0875 14.1129L10.9446 14.1978L10.9485 12.7695Z" fill="#A7B1BA"/>
<path d="M20.8424 32.0285L20.9813 31.9474L23.3091 33.2908L23.1701 33.3718L20.8424 32.0285Z" fill="#E4ECF5"/>
<path d="M10.9215 22.841L11.0604 22.756L20.4023 28.1488L20.2595 28.2338L10.9215 22.841Z" fill="#E4ECF5"/>
<path d="M20.8501 28.8746L20.9929 28.7936L20.989 30.218L20.8462 30.3029L20.8501 28.8746Z" fill="#A7B1BA"/>
<path d="M20.8462 30.3029L20.989 30.218L23.3168 31.5614L23.174 31.6463L20.8462 30.3029Z" fill="#E4ECF5"/>
<path d="M10.9253 21.1077L11.0643 21.0267L20.4061 26.4195L20.2633 26.5005L10.9253 21.1077Z" fill="#E4ECF5"/>
<path d="M20.8539 27.1452L20.9968 27.0641L20.9929 28.4924L20.8501 28.5735L20.8539 27.1452Z" fill="#A7B1BA"/>
<path d="M20.8501 28.5736L20.9929 28.4925L23.3206 29.8359L23.1778 29.9169L20.8501 28.5736Z" fill="#E4ECF5"/>
<path d="M10.9292 19.3822L11.072 19.2973L20.41 24.6901L20.271 24.775L10.9292 19.3822Z" fill="#E4ECF5"/>
<path d="M20.8617 25.4158L21.0006 25.3347L20.9968 26.7592L20.8539 26.8441L20.8617 25.4158Z" fill="#A7B1BA"/>
<path d="M20.8539 26.8441L20.9968 26.7592L23.3245 28.1064L23.1817 28.1875L20.8539 26.8441Z" fill="#E4ECF5"/>
<path d="M10.933 17.6528L11.0759 17.5718L20.4177 22.9646L20.2749 23.0456L10.933 17.6528Z" fill="#E4ECF5"/>
<path d="M20.8655 23.6903L21.0045 23.6092L21.0006 25.0336L20.8617 25.1147L20.8655 23.6903Z" fill="#A7B1BA"/>
<path d="M20.8617 25.1146L21.0006 25.0336L23.3284 26.3769L23.1894 26.458L20.8617 25.1146Z" fill="#E4ECF5"/>
<path d="M10.9408 15.9234L11.0797 15.8423L20.4216 21.2351L20.2788 21.3162L10.9408 15.9234Z" fill="#E4ECF5"/>
<path d="M20.8694 21.9608L21.0122 21.8798L21.0083 23.3042L20.8655 23.3853L20.8694 21.9608Z" fill="#A7B1BA"/>
<path d="M20.8655 23.3853L21.0083 23.3042L23.3361 24.6476L23.1933 24.7286L20.8655 23.3853Z" fill="#E4ECF5"/>
<path d="M10.9446 14.1979L11.0875 14.113L20.4254 19.5058L20.2865 19.5907L10.9446 14.1979Z" fill="#E4ECF5"/>
<path d="M20.8732 20.2315L21.0161 20.1504L21.0122 21.5748L20.8694 21.6598L20.8732 20.2315Z" fill="#A7B1BA"/>
<path d="M20.8694 21.6598L21.0122 21.5748L23.3399 22.9182L23.1971 23.0031L20.8694 21.6598Z" fill="#E4ECF5"/>
<path d="M20.881 18.5021L21.0199 18.421L21.0161 19.8493L20.8771 19.9304L20.881 18.5021Z" fill="#A7B1BA"/>
<path d="M20.8771 19.9304L21.0161 19.8493L23.3438 21.1927L23.2048 21.2737L20.8771 19.9304Z" fill="#E4ECF5"/>
<path d="M7.62093 10.1098L7.76376 10.0249L23.9499 19.3745L23.8109 19.4555L7.62093 10.1098Z" fill="#E4ECF5"/>
<path d="M7.62093 10.1098L7.54759 35.8887L23.7376 45.2344L23.8109 19.4555L7.62093 10.1098ZM10.2884 36.3287L8.14979 35.0935V33.6652L10.2922 34.9004V36.3287H10.2884ZM10.2922 34.5993L8.15365 33.3641V31.9358L10.2961 33.171V34.5993H10.2922ZM10.2961 32.8699L8.15751 31.6347V30.2102L10.3 31.4455V32.8699H10.2961ZM10.3 31.1405L8.16137 29.9053V28.4808L10.3038 29.7161V31.1405H10.3ZM10.3038 29.4111L8.16523 28.1759V26.7514L10.3077 27.9867V29.4111H10.3038ZM10.3077 27.6817L8.16909 26.4465V25.022L10.3115 26.2573V27.6817H10.3077ZM10.3115 25.9523L8.17295 24.7171V23.2888L10.3154 24.524V25.9523H10.3115ZM10.3154 24.2229L8.17681 22.9877V21.5594L10.3193 22.7946V24.2229H10.3154ZM10.3193 22.4935L8.18067 21.2583V19.83L10.3231 21.0652V22.4935H10.3193ZM10.3231 20.7641L8.18453 19.5289V18.1044L10.327 19.3397V20.7641H10.3231ZM10.327 19.0347L8.18839 17.7995V16.375L10.3308 17.6103V19.0347H10.327ZM10.3308 17.3053L8.19225 16.0701V14.6456L10.3347 15.8809V17.3053H10.3308ZM10.3347 15.5759L8.19611 14.3407V12.9162L10.3386 14.1515V15.5759H10.3347ZM10.3386 13.8465L8.19997 12.6113V11.183L10.3424 12.4182V13.8465H10.3386ZM20.2054 42.0497L10.8636 36.6569V35.2286L20.2093 40.6214V42.0497H20.2054ZM20.2093 40.3203L10.8674 34.9275V33.4992L20.2131 38.892V40.3203H20.2093ZM20.2131 38.5909L10.8713 33.1981V31.7736L20.217 37.1664V38.5909H20.2131ZM20.217 36.8615L10.8751 31.4687V30.0442L20.2209 35.437V36.8615H20.217ZM20.2209 35.1321L10.879 29.7393V28.3148L20.2247 33.7076V35.1321H20.2209ZM20.2247 33.4027L10.8829 28.0099V26.5854L20.2286 31.9782V33.4027H20.2247ZM20.2286 31.6733L10.8867 26.2805V24.8522L20.2324 30.245V31.6733H20.2286ZM20.2324 29.9439L10.8906 24.5511V23.1228L20.2363 28.5156V29.9439H20.2324ZM20.2363 28.2145L10.8944 22.8217V21.3934L20.2402 26.7862V28.2145H20.2363ZM20.2402 26.4851L10.8983 21.0923V19.6678L20.244 25.0606V26.4851H20.2402ZM20.244 24.7557L10.9022 19.3629V17.9384L20.2479 23.3312V24.7557H20.244ZM20.2479 23.0263L10.906 17.6335V16.209L20.2517 21.6018V23.0263H20.2479ZM20.2517 21.2969L10.9099 15.9041V14.4796L20.2556 19.8724V21.2969H20.2517ZM20.2556 19.5675L10.9137 14.1747V12.7464L20.2595 18.1392V19.5675H20.2556ZM23.1083 43.7212L20.7806 42.3778V40.9495L23.1122 42.2929V43.7212H23.1083ZM23.1122 41.9918L20.7844 40.6484V39.2201L23.1161 40.5635V41.9918H23.1122ZM23.1161 40.2624L20.7883 38.919V37.4945L23.1199 38.8379V40.2624H23.1161ZM23.1199 38.533L20.7922 37.1896V35.7651L23.1238 37.1085V38.533H23.1199ZM23.1238 36.8036L20.796 35.4602V34.0357L23.1276 35.3791V36.8036H23.1238ZM23.1276 35.0742L20.7999 33.7308V32.3063L23.1315 33.6497V35.0742H23.1276ZM23.1315 33.3448L20.8038 32.0014V30.5731L23.1354 31.9165V33.3448H23.1315ZM23.1354 31.6154L20.8076 30.272V28.8437L23.1392 30.1871V31.6154H23.1354ZM23.1392 29.886L20.8115 28.5426V27.1143L23.1431 28.4577V29.886H23.1392ZM23.1431 28.1566L20.8153 26.8132V25.3887L23.1469 26.7321V28.1566H23.1431ZM23.1469 26.4272L20.8192 25.0838V23.6593L23.1508 25.0027V26.4272H23.1469ZM23.1508 24.6978L20.8231 23.3544V21.9299L23.1547 23.2733V24.6978H23.1508ZM23.1547 22.9684L20.8269 21.625V20.2005L23.1585 21.5439V22.9684H23.1547ZM23.1585 21.239L20.8308 19.8956V18.4673L23.1624 19.8107V21.239H23.1585Z" fill="#BFC9D3"/>
<path d="M23.8109 19.4555L23.9499 19.3745L23.8765 45.1533L23.7376 45.2344L23.8109 19.4555Z" fill="#A7B1BA"/>
<path d="M23.3708 15.9081L33.4731 10.0405L33.4654 12.3297L23.367 18.1973L23.3708 15.9081Z" fill="#234E5D"/>
<path d="M9.79426 8.06793L19.8927 2.20032L33.4731 10.0405L23.3708 15.9081L9.79426 8.06793Z" fill="#285A6B"/>
<path d="M23.3708 15.9081L23.367 18.1973L9.7904 10.3571L9.79426 8.06793L23.3708 15.9081Z" fill="#2E687C"/>
<path d="M22.6644 15.2286L34.7818 8.1875L34.7779 9.36874L22.6605 16.4137L22.6644 15.2286Z" fill="#A7B1BA"/>
<path d="M8.48563 7.04487L20.603 -0.00012207L34.7818 8.18751L22.6644 15.2286L8.48563 7.04487Z" fill="#E4ECF5"/>
<path d="M22.6644 15.2286L22.6605 16.4137L8.48177 8.2261L8.48563 7.04486L22.6644 15.2286Z" fill="#BFC9D3"/>
</g>
<g style="mix-blend-mode:overlay">
<path d="M36.0074 41.4476L36.0769 12.3296L33.4751 10.828V10.1293L34.7837 9.36881V8.18757L20.6049 -6.10352e-05L8.48756 7.04107V8.22231L9.68039 8.9133L7.76955 10.0251H7.76569L7.62287 10.1061L7.54952 35.885H7.55724L7.55338 35.8927L7.5418 39.4596L4.00193 41.5171V42.6019L23.5774 53.9047L39.5859 44.6015V43.5167L36.0036 41.4476H36.0074Z" fill="#274380"/>
</g>
<defs>
<filter id="filter0_d_31_5027" x="0" y="-0.00012207" width="43.5878" height="61.9048" filterUnits="userSpaceOnUse" color-interpolation-filters="sRGB">
<feFlood flood-opacity="0" result="BackgroundImageFix"/>
<feColorMatrix in="SourceAlpha" type="matrix" values="0 0 0 0 0 0 0 0 0 0 0 0 0 0 0 0 0 0 127 0" result="hardAlpha"/>
<feOffset dy="4"/>
<feGaussianBlur stdDeviation="2"/>
<feComposite in2="hardAlpha" operator="out"/>
<feColorMatrix type="matrix" values="0 0 0 0 0 0 0 0 0 0 0 0 0 0 0 0 0 0 0.25 0"/>
<feBlend mode="normal" in2="BackgroundImageFix" result="effect1_dropShadow_31_5027"/>
<feBlend mode="normal" in="SourceGraphic" in2="effect1_dropShadow_31_5027" result="shape"/>
</filter>
</defs>
</svg>
